<svg version="1.1" xmlns="http://www.w3.org/2000/svg" viewBox="0 0 3152.7386948739695 1527.9999999999998" width="3152.7386948739695" height="1527.9999999999998" filter="invert(93%) hue-rotate(180deg)">
  <!-- svg-source:excalidraw -->
  
  <defs>
    <style class="style-fonts">
      @font-face {
        font-family: "Virgil";
        src: url("https://excalidraw.com/Virgil.woff2");
      }
      @font-face {
        font-family: "Cascadia";
        src: url("https://excalidraw.com/Cascadia.woff2");
      }
      @font-face {
        font-family: "Assistant";
        src: url("https://excalidraw.com/Assistant-Regular.woff2");
      }
    </style>
    
  </defs>
  <rect x="0" y="0" width="3152.7386948739695" height="1527.9999999999998" fill="#ffffff"></rect><g stroke-linecap="round" transform="translate(1065.5476352048493 37.184673718492604) rotate(0 399.9999999999999 139)"><path d="M32 0 C195.19 -0.46, 356.07 0.59, 768 0 C786.09 -3.43, 803.11 7.99, 800 32 C803.13 99.61, 802.94 164.81, 800 246 C801.7 266.82, 790.43 280.46, 768 278 C522.46 275.64, 276.84 274.58, 32 278 C12.51 275.01, -3.26 269.87, 0 246 C0.6 190.43, -1.26 137.17, 0 32 C3.4 11.41, 8.28 3.31, 32 0" stroke="none" stroke-width="0" fill="#a5d8ff"></path><path d="M32 0 C289.17 -2.8, 545.41 -2.58, 768 0 M32 0 C253.57 -1.67, 474.81 -2.05, 768 0 M768 0 C788.37 0.42, 798.19 8.76, 800 32 M768 0 C787.71 -0.79, 800.56 9.19, 800 32 M800 32 C799.34 106.21, 799.71 182.14, 800 246 M800 32 C798.72 90.18, 797.95 148.53, 800 246 M800 246 C798.91 268.02, 790.5 278.74, 768 278 M800 246 C799.23 265.35, 788.63 279.26, 768 278 M768 278 C512.35 280.62, 255.09 279.41, 32 278 M768 278 C509.96 278.28, 252.27 277.74, 32 278 M32 278 C10.38 276.65, -1.07 267.97, 0 246 M32 278 C10.14 278.19, -1.33 269.27, 0 246 M0 246 C-0.54 199.35, -1.51 152.09, 0 32 M0 246 C-0.82 176.68, -0.83 107.97, 0 32 M0 32 C-0.83 9.03, 10.89 0.45, 32 0 M0 32 C-2.08 8.49, 12.05 2.11, 32 0" stroke="#1e1e1e" stroke-width="2" fill="none"></path></g><g transform="translate(1423.360135204849 154.5846737184926) rotate(0 42.18750000000006 21.599999999999994)"><text x="42.1875" y="34.762499999999996" font-family="Cascadia, Segoe UI Emoji" font-size="36px" fill="#1e1e1e" text-anchor="middle" style="white-space: pre;" direction="ltr" dominant-baseline="alphabetic">User</text></g><g stroke-linecap="round" transform="translate(2368.7386948739695 10) rotate(0 387 141)"><path d="M32 0 C196.57 3.46, 359.62 5.08, 742 0 C760.78 -1.7, 776.7 8.76, 774 32 C769.97 80.63, 771.33 134.81, 774 250 C774.8 270.14, 765.75 281.18, 742 282 C511.03 284.88, 281.68 283.71, 32 282 C11.17 285.38, -2 269.03, 0 250 C1.45 189.66, 3.89 128.12, 0 32 C-0.53 7.37, 13.79 1.45, 32 0" stroke="none" stroke-width="0" fill="#a5d8ff"></path><path d="M32 0 C229.29 -1.08, 426.48 -0.63, 742 0 M32 0 C305.66 0.01, 578.85 -0.46, 742 0 M742 0 C764.81 -0.85, 774.54 8.83, 774 32 M742 0 C762.99 0.4, 775.77 8.37, 774 32 M774 32 C773.77 86.22, 771.88 136.09, 774 250 M774 32 C774.23 90.29, 774.79 149.89, 774 250 M774 250 C773.28 272.22, 764.15 281.7, 742 282 M774 250 C773.53 272.71, 763.55 282.33, 742 282 M742 282 C469.08 283, 195.33 283.09, 32 282 M742 282 C573.06 279.28, 404.37 279.37, 32 282 M32 282 C9.78 280.24, 0.81 271.5, 0 250 M32 282 C12.96 282.85, -1.55 270.22, 0 250 M0 250 C0.6 190.24, 0.24 126.78, 0 32 M0 250 C-1.49 194.54, -0.64 139.04, 0 32 M0 32 C0.31 8.92, 11.49 -0.5, 32 0 M0 32 C2.25 9.51, 8.99 -0.52, 32 0" stroke="#1e1e1e" stroke-width="2" fill="none"></path></g><g transform="translate(2681.9105698739695 107.80000000000001) rotate(0 73.828125 43.199999999999996)"><text x="73.828125" y="34.762499999999996" font-family="Cascadia, Segoe UI Emoji" font-size="36px" fill="#1e1e1e" text-anchor="middle" style="white-space: pre;" direction="ltr" dominant-baseline="alphabetic">Message</text><text x="73.828125" y="77.96249999999999" font-family="Cascadia, Segoe UI Emoji" font-size="36px" fill="#1e1e1e" text-anchor="middle" style="white-space: pre;" direction="ltr" dominant-baseline="alphabetic"></text></g><g stroke-linecap="round" transform="translate(1064.73869487397 796.9999999999998) rotate(0 399.9999999999999 139)"><path d="M32 0 C303.18 -1.24, 573.22 -1.65, 768 0 C787.15 -2.3, 802.08 10.93, 800 32 C797.11 109.3, 799.69 184.86, 800 246 C803.2 267.71, 792.67 280.36, 768 278 C491.48 282.57, 214.5 281.85, 32 278 C7.28 275.2, -0.72 266.22, 0 246 C2.96 175.87, 2.98 110.98, 0 32 C0.75 7.88, 9.63 -0.58, 32 0" stroke="none" stroke-width="0" fill="#a5d8ff"></path><path d="M32 0 C287.11 1.2, 540.3 1.67, 768 0 M32 0 C230.26 1.62, 427.77 1.97, 768 0 M768 0 C787.9 1.35, 798.39 12.33, 800 32 M768 0 C787.88 -1.5, 798.21 12.43, 800 32 M800 32 C801.7 88.72, 799.33 144.27, 800 246 M800 32 C798.95 83.33, 799.31 133.63, 800 246 M800 246 C801.73 268.73, 789.16 279.07, 768 278 M800 246 C799.2 267.56, 787.88 276.91, 768 278 M768 278 C536.21 280.24, 306.36 281.1, 32 278 M768 278 C619.47 280.34, 470.38 280.85, 32 278 M32 278 C9.79 278.55, -0.58 265.4, 0 246 M32 278 C9.27 280.21, 1.23 266.17, 0 246 M0 246 C0.6 178.02, -0.45 107.09, 0 32 M0 246 C-0.78 190.55, -0.63 137.17, 0 32 M0 32 C1.16 11.83, 11.27 -0.37, 32 0 M0 32 C0.95 9.84, 8.94 -1.11, 32 0" stroke="#1e1e1e" stroke-width="2" fill="none"></path></g><g transform="translate(1422.55119487397 914.3999999999999) rotate(0 42.18749999999994 21.600000000000023)"><text x="42.1875" y="34.762499999999996" font-family="Cascadia, Segoe UI Emoji" font-size="36px" fill="#1e1e1e" text-anchor="middle" style="white-space: pre;" direction="ltr" dominant-baseline="alphabetic">Chat</text></g><g stroke-linecap="round" transform="translate(10 362.3443224841945) rotate(0 399.9999999999999 139)"><path d="M32 0 C282.75 -2.27, 536.34 -2.05, 768 0 C786.55 1.86, 801.31 14.23, 800 32 C802.95 82.07, 799.58 129.04, 800 246 C798.01 270.88, 791.72 279.63, 768 278 C563.45 280.26, 355.55 281.09, 32 278 C13.68 276.13, -3.04 266.86, 0 246 C1.07 190.43, 0.06 134.63, 0 32 C-0.01 7.73, 7.96 -3.45, 32 0" stroke="none" stroke-width="0" fill="#a5d8ff"></path><path d="M32 0 C295.36 1.8, 559.35 2.65, 768 0 M32 0 C317.51 -2.21, 603.53 -2.04, 768 0 M768 0 C789.17 -0.19, 801.64 10.7, 800 32 M768 0 C787.12 -1.39, 799.72 10.8, 800 32 M800 32 C797.63 81.57, 800.09 132.98, 800 246 M800 32 C798.82 81.04, 798.99 129.28, 800 246 M800 246 C799.79 268.24, 789.63 276.37, 768 278 M800 246 C799.5 267.43, 788.68 280.03, 768 278 M768 278 C552.2 276.37, 335.48 276.45, 32 278 M768 278 C540.05 278.06, 312.85 278.42, 32 278 M32 278 C10.48 278.39, -0.63 269.23, 0 246 M32 278 C11.97 276.87, -0.3 265.72, 0 246 M0 246 C-0.46 197.7, -0.7 147.63, 0 32 M0 246 C1.33 175.12, 2.41 103.17, 0 32 M0 32 C0.44 9.38, 10.59 0.2, 32 0 M0 32 C-0.49 8.52, 8.81 -0.11, 32 0" stroke="#1e1e1e" stroke-width="2" fill="none"></path></g><g transform="translate(357.2656249999999 479.74432248419447) rotate(0 52.734375 21.599999999999994)"><text x="52.734375" y="34.762499999999996" font-family="Cascadia, Segoe UI Emoji" font-size="36px" fill="#1e1e1e" text-anchor="middle" style="white-space: pre;" direction="ltr" dominant-baseline="alphabetic">Group</text></g><g stroke-linecap="round" transform="translate(728.7386948739702 1243.9999999999998) rotate(0 350.9999999999999 136)"><path d="M32 0 C172.08 -4.24, 313.21 -5.38, 670 0 C688.87 -0.33, 704.36 8.2, 702 32 C704.04 107.07, 701.11 184.97, 702 240 C704.34 263.13, 692.8 273.54, 670 272 C534.44 270.6, 397.38 269.93, 32 272 C11.8 270.2, 3.46 259.09, 0 240 C2.7 163.39, 4.25 84.93, 0 32 C-2.63 13.38, 9.05 3.35, 32 0" stroke="none" stroke-width="0" fill="#a5d8ff"></path><path d="M32 0 C179.47 1.52, 327.6 2.1, 670 0 M32 0 C255.21 -1.48, 478.13 -1, 670 0 M670 0 C692.32 -0.93, 700.96 11.66, 702 32 M670 0 C689.99 0.62, 700.95 10.67, 702 32 M702 32 C702.34 102.35, 703.61 176.22, 702 240 M702 32 C701.84 102.56, 701.11 172.49, 702 240 M702 240 C703.04 259.86, 692.59 272.39, 670 272 M702 240 C701.84 260.5, 690.18 271.67, 670 272 M670 272 C535.34 272.96, 401.92 272.2, 32 272 M670 272 C528.04 270.34, 385.74 270.43, 32 272 M32 272 C10.82 272.82, 1 260.08, 0 240 M32 272 C9.35 273.05, -1.05 260.81, 0 240 M0 240 C-0.44 167, -0.47 91.23, 0 32 M0 240 C1.3 172.01, -0.08 103.91, 0 32 M0 32 C1.97 9.77, 9.95 0.41, 32 0 M0 32 C-0.49 9.3, 11.78 1.91, 32 0" stroke="#1e1e1e" stroke-width="2" fill="none"></path></g><g transform="translate(984.8168198739701 1358.3999999999999) rotate(0 94.921875 21.600000000000023)"><text x="94.921875" y="34.762499999999996" font-family="Cascadia, Segoe UI Emoji" font-size="36px" fill="#1e1e1e" text-anchor="middle" style="white-space: pre;" direction="ltr" dominant-baseline="alphabetic">GroupChat</text></g><g stroke-linecap="round" transform="translate(1560.73869487397 1239.9999999999998) rotate(0 383.9999999999999 138.99999999999994)"><path d="M32 0 C195.01 -2.58, 354.88 -3.54, 736 0 C755.89 1.02, 769.58 11.81, 768 32 C765.92 89.9, 766.02 147.2, 768 246 C769.07 269.62, 758.66 279.76, 736 278 C586.11 276.05, 435.77 273.59, 32 278 C7.14 277.23, 2.4 269.1, 0 246 C0.82 201.05, -0.48 154.51, 0 32 C-3.57 11.8, 8.71 2.27, 32 0" stroke="none" stroke-width="0" fill="#a5d8ff"></path><path d="M32 0 C225.82 -1.03, 420.24 -1.13, 736 0 M32 0 C266.66 0.66, 501.34 1.27, 736 0 M736 0 C755.44 1.43, 769.53 12.51, 768 32 M736 0 C755.44 1.92, 766.5 9.06, 768 32 M768 32 C766.72 78.54, 768.61 125.31, 768 246 M768 32 C769.05 82.02, 767.5 130.89, 768 246 M768 246 C766.63 266.77, 755.67 276.26, 736 278 M768 246 C766.07 268.7, 757.31 276.32, 736 278 M736 278 C488.5 280.3, 240.41 280.14, 32 278 M736 278 C574.83 278.13, 414.4 278.07, 32 278 M32 278 C8.74 276.84, -1.92 268.46, 0 246 M32 278 C9.8 275.89, 2.11 265.42, 0 246 M0 246 C-0.48 189.82, 1 138.65, 0 32 M0 246 C1.11 174.27, 0.91 104.44, 0 32 M0 32 C-0.88 10.6, 10.2 1.3, 32 0 M0 32 C1.37 10.48, 11.54 1.63, 32 0" stroke="#1e1e1e" stroke-width="2" fill="none"></path></g><g transform="translate(1839.2699448739697 1357.3999999999999) rotate(0 105.46875 21.600000000000023)"><text x="105.46875" y="34.762499999999996" font-family="Cascadia, Segoe UI Emoji" font-size="36px" fill="#1e1e1e" text-anchor="middle" style="white-space: pre;" direction="ltr" dominant-baseline="alphabetic">SingleChat</text></g><g stroke-linecap="round"><g transform="translate(1466.73869487397 1085.9999999999998) rotate(0 -194 77)"><path d="M-1 0.07 C-65.71 25.73, -323.67 127.68, -388.31 153.45 M0.68 -0.95 C-64.22 24.93, -324.91 129.09, -389.42 154.69" stroke="#1e1e1e" stroke-width="2" fill="none"></path></g></g><mask></mask><g stroke-linecap="round"><g transform="translate(1468.73869487397 1085.9999999999998) rotate(0 211.9999999999999 75)"><path d="M-1.09 0.55 C69.58 25.5, 352.27 124.54, 423.26 149.36 M0.54 -0.21 C71.67 24.92, 354.93 125.44, 425.59 150.57" stroke="#1e1e1e" stroke-width="2" fill="none"></path></g></g><mask></mask><g stroke-linecap="round"><g transform="translate(1430.8517003969898 316.1846737184926) rotate(0 8.971210202797977 239.90766314075353)"><path d="M1.07 0.95 C4.03 81.03, 15.4 399.34, 18.22 479.28 M0.17 0.41 C2.96 80.74, 14.58 400.83, 17.42 480.54" stroke="#1e1e1e" stroke-width="2" fill="none"></path></g><g transform="translate(1430.8517003969898 316.1846737184926) rotate(0 8.971210202797977 239.90766314075353)"><path d="M8.03 457.37 C12.57 465.59, 13.27 473.01, 17.42 480.54 M8.03 457.37 C11.23 465.95, 15.92 473.93, 17.42 480.54" stroke="#1e1e1e" stroke-width="2" fill="none"></path></g><g transform="translate(1430.8517003969898 316.1846737184926) rotate(0 8.971210202797977 239.90766314075353)"><path d="M25.12 456.75 C23.87 465.34, 18.79 472.97, 17.42 480.54 M25.12 456.75 C22.11 465.51, 20.58 473.71, 17.42 480.54" stroke="#1e1e1e" stroke-width="2" fill="none"></path></g></g><mask></mask><g stroke-linecap="round"><g transform="translate(1054.6007974775298 219.29632224292925) rotate(0 -165.46781082199868 66.34699660978691)"><path d="M-0.71 0.94 C-55.57 23.29, -274.72 111.1, -329.86 133.1 M1.11 0.39 C-53.74 22.46, -274.62 108.86, -330.24 131.18" stroke="#1e1e1e" stroke-width="2" fill="none"></path></g><g transform="translate(1054.6007974775298 219.29632224292925) rotate(0 -165.46781082199868 66.34699660978691)"><path d="M-311.54 114.59 C-314.54 120.21, -319.88 121.33, -330.24 131.18 M-311.54 114.59 C-318.13 120.17, -323.93 125.1, -330.24 131.18" stroke="#1e1e1e" stroke-width="2" fill="none"></path></g><g transform="translate(1054.6007974775298 219.29632224292925) rotate(0 -165.46781082199868 66.34699660978691)"><path d="M-305.25 130.49 C-309.61 132.3, -316.44 129.65, -330.24 131.18 M-305.25 130.49 C-314 130.97, -321.8 130.83, -330.24 131.18" stroke="#1e1e1e" stroke-width="2" fill="none"></path></g></g><mask></mask><g stroke-linecap="round"><g transform="translate(474.26441749312846 642.7083332362527) rotate(0 230.21608462191125 297.36244263663536)"><path d="M0.69 0.83 C77.46 99.95, 383.12 496.48, 459.84 595.57 M-0.4 0.22 C76.84 98.94, 385.42 495.03, 462.24 593.9" stroke="#1e1e1e" stroke-width="2" fill="none"></path></g><g transform="translate(474.26441749312846 642.7083332362527) rotate(0 230.21608462191125 297.36244263663536)"><path d="M441.06 580.61 C447.49 582.61, 452.48 587.61, 462.24 593.9 M441.06 580.61 C447.93 584.87, 456.72 590.9, 462.24 593.9" stroke="#1e1e1e" stroke-width="2" fill="none"></path></g><g transform="translate(474.26441749312846 642.7083332362527) rotate(0 230.21608462191125 297.36244263663536)"><path d="M454.56 570.11 C457.9 574.64, 459.73 582.09, 462.24 593.9 M454.56 570.11 C456.6 578.08, 460.56 587.87, 462.24 593.9" stroke="#1e1e1e" stroke-width="2" fill="none"></path></g></g><mask></mask><g stroke-linecap="round"><g transform="translate(1853.9622024147218 313.20776967966214) rotate(0 71.14316503940995 457.2347236240737)"><path d="M1.09 0.5 C24.87 152.67, 119.54 762.05, 143.13 914.2 M0.21 -0.28 C23.87 152.58, 118.99 763.19, 142.62 915.6" stroke="#1e1e1e" stroke-width="2" fill="none"></path></g><g transform="translate(1853.9622024147218 313.20776967966214) rotate(0 71.14316503940995 457.2347236240737)"><path d="M130.56 893.7 C135.68 902.37, 138.46 908.85, 142.62 915.6 M130.56 893.7 C134 898.48, 134.81 902.59, 142.62 915.6" stroke="#1e1e1e" stroke-width="2" fill="none"></path></g><g transform="translate(1853.9622024147218 313.20776967966214) rotate(0 71.14316503940995 457.2347236240737)"><path d="M147.46 891.07 C146.91 900.78, 143.99 908.15, 142.62 915.6 M147.46 891.07 C147.32 896.52, 144.55 901.19, 142.62 915.6" stroke="#1e1e1e" stroke-width="2" fill="none"></path></g></g><mask></mask><g stroke-linecap="round"><g transform="translate(1865.9206410586064 167.12471058390696) rotate(0 249.40075834040397 -8.79297545430913)"><path d="M0.22 -0.58 C83.46 -3.41, 416.04 -14.82, 499.31 -17.74 M-1.12 1.72 C82.02 -0.84, 415.17 -13.15, 498.63 -16.29" stroke="#1e1e1e" stroke-width="2" fill="none"></path></g><g transform="translate(1865.9206410586064 167.12471058390696) rotate(0 249.40075834040397 -8.79297545430913)"><path d="M475.48 -6.87 C481.28 -8.79, 488.71 -10.56, 498.63 -16.29 M475.48 -6.87 C481.24 -9.71, 486.53 -11.56, 498.63 -16.29" stroke="#1e1e1e" stroke-width="2" fill="none"></path></g><g transform="translate(1865.9206410586064 167.12471058390696) rotate(0 249.40075834040397 -8.79297545430913)"><path d="M474.84 -23.96 C480.72 -20.93, 488.33 -17.74, 498.63 -16.29 M474.84 -23.96 C480.61 -22.43, 486.06 -19.92, 498.63 -16.29" stroke="#1e1e1e" stroke-width="2" fill="none"></path></g></g><mask></mask><g stroke-linecap="round"><g transform="translate(1859.5257498191088 823.3926002400212) rotate(0 286.17138296751466 -260.59181800952456)"><path d="M-0.3 -1.2 C94.99 -88.16, 475.75 -435.37, 571.39 -521.91 M1.74 0.79 C97.44 -86.02, 478.33 -433.56, 573.6 -520.76" stroke="#1e1e1e" stroke-width="2" fill="none"></path></g><g transform="translate(1859.5257498191088 823.3926002400212) rotate(0 286.17138296751466 -260.59181800952456)"><path d="M562.03 -498.6 C563.16 -506.1, 567.05 -508.47, 573.6 -520.76 M562.03 -498.6 C566.82 -507.16, 570.56 -515.21, 573.6 -520.76" stroke="#1e1e1e" stroke-width="2" fill="none"></path></g><g transform="translate(1859.5257498191088 823.3926002400212) rotate(0 286.17138296751466 -260.59181800952456)"><path d="M550.49 -511.22 C554.71 -515.31, 561.68 -514.3, 573.6 -520.76 M550.49 -511.22 C559.58 -515.3, 567.49 -518.79, 573.6 -520.76" stroke="#1e1e1e" stroke-width="2" fill="none"></path></g></g><mask></mask></svg>